<?xml version="1.0" encoding="UTF-8"?>
<svg xmlns="http://www.w3.org/2000/svg" xml:lang="az" width="1400" height="780" viewBox="0 0 1400 780" role="img" aria-labelledby="title desc">
<title id="title">Sistemin sərhədi</title>
<desc id="desc">Beş məhsul modulu və iki izolyasiya edilmiş R1 laboratoriyası eyni tətbiqdədir.</desc>
<defs>
<marker id="arrow" viewBox="0 0 10 10" refX="9" refY="5" markerWidth="7" markerHeight="7" orient="auto-start-reverse">
<path d="M 0 0 L 10 5 L 0 10 Z" fill="#64748b"/>
</marker>
</defs>
<style>text{font-family:Segoe UI,Arial,sans-serif;fill:#0f172a}path,rect,ellipse{vector-effect:non-scaling-stroke}</style>
<rect width="1400" height="780" fill="#ffffff"/>
<text x="36" y="47" font-size="29" text-anchor="start" font-weight="700">Sistemin sərhədi</text>
<text x="36" y="77" font-size="16" text-anchor="start" font-weight="400">Beş məhsul modulu və iki izolyasiya edilmiş R1 laboratoriyası eyni tətbiqdədir.</text>
<rect x="310" y="110" width="750" height="320" rx="18" fill="#eff6ff" stroke="#2563eb" stroke-dasharray="7 5"/>
<text x="330" y="139" font-size="17" text-anchor="start" font-weight="650">TaskFlow — bir deploy, bir Laravel tətbiqi</text>
<rect x="1100" y="110" width="260" height="440" rx="18" fill="#f5f3ff" stroke="#7c3aed" stroke-dasharray="7 5"/>
<text x="1120" y="139" font-size="17" text-anchor="start" font-weight="650">R1 laboratoriyası</text>
<path d="M 260 157 L 310 157" fill="none" stroke="#64748b" stroke-width="2" stroke-linejoin="round" marker-end="url(#arrow)"/>
<text x="285" y="143" font-size="15" text-anchor="middle" font-weight="400">Web</text>
<path d="M 260 277 L 310 277" fill="none" stroke="#64748b" stroke-width="2" stroke-linejoin="round" marker-end="url(#arrow)"/>
<text x="285" y="263" font-size="15" text-anchor="middle" font-weight="400">REST</text>
<path d="M 500 430 L 500 490" fill="none" stroke="#64748b" stroke-width="2" stroke-linejoin="round" marker-end="url(#arrow)"/>
<path d="M 870 430 L 870 490" fill="none" stroke="#64748b" stroke-width="2" stroke-linejoin="round" marker-end="url(#arrow)"/>
<path d="M 1230 550 L 1230 590 L 650 590" fill="none" stroke="#64748b" stroke-width="2" stroke-linejoin="round" stroke-dasharray="7 5" marker-end="url(#arrow)"/>
<text x="950" y="625" font-size="15" text-anchor="middle" font-weight="400">r1_* ayrıca cədvəllər</text>
<g>
<rect x="40" y="115" width="220" height="85" rx="12" fill="#f1f5f9" stroke="#64748b" stroke-width="1.8"/>
<text x="150" y="151" font-size="18" text-anchor="middle" font-weight="650">Brauzer</text>
<text x="150" y="176" font-size="18" text-anchor="middle" font-weight="400">session + CSRF</text>
</g>
<g>
<rect x="40" y="235" width="220" height="85" rx="12" fill="#f1f5f9" stroke="#64748b" stroke-width="1.8"/>
<text x="150" y="271" font-size="18" text-anchor="middle" font-weight="650">API client</text>
<text x="150" y="296" font-size="18" text-anchor="middle" font-weight="400">Sanctum PAT</text>
</g>
<g>
<rect x="345" y="170" width="680" height="75" rx="12" fill="#f1f5f9" stroke="#64748b" stroke-width="1.8"/>
<text x="685" y="201" font-size="18" text-anchor="middle" font-weight="650">Host application</text>
<text x="685" y="226" font-size="18" text-anchor="middle" font-weight="400">Auth · user admin · PAT · notification</text>
</g>
<g>
<rect x="340" y="290" width="130" height="85" rx="12" fill="#eff6ff" stroke="#2563eb" stroke-width="1.8"/>
<text x="405" y="338.5" font-size="18" text-anchor="middle" font-weight="650">Projects</text>
</g>
<g>
<rect x="480" y="290" width="130" height="85" rx="12" fill="#eff6ff" stroke="#2563eb" stroke-width="1.8"/>
<text x="545" y="338.5" font-size="18" text-anchor="middle" font-weight="650">Tasks</text>
</g>
<g>
<rect x="620" y="290" width="130" height="85" rx="12" fill="#eff6ff" stroke="#2563eb" stroke-width="1.8"/>
<text x="685" y="338.5" font-size="18" text-anchor="middle" font-weight="650">Media</text>
</g>
<g>
<rect x="760" y="290" width="130" height="85" rx="12" fill="#eff6ff" stroke="#2563eb" stroke-width="1.8"/>
<text x="825" y="338.5" font-size="18" text-anchor="middle" font-weight="650">Activity</text>
</g>
<g>
<rect x="900" y="290" width="130" height="85" rx="12" fill="#eff6ff" stroke="#2563eb" stroke-width="1.8"/>
<text x="965" y="338.5" font-size="18" text-anchor="middle" font-weight="650">Dashboard</text>
</g>
<g>
<rect x="1120" y="170" width="220" height="90" rx="12" fill="#f5f3ff" stroke="#7c3aed" stroke-width="1.8"/>
<text x="1230" y="208.5" font-size="18" text-anchor="middle" font-weight="650">LearningCatalog</text>
<text x="1230" y="233.5" font-size="18" text-anchor="middle" font-weight="400">qeydin sahibi</text>
</g>
<path d="M 1230 260 L 1230 325" fill="none" stroke="#64748b" stroke-width="2" stroke-linejoin="round" marker-end="url(#arrow)"/>
<text x="1230" y="302" font-size="15" text-anchor="middle" font-weight="400">event / contract</text>
<g>
<rect x="1120" y="325" width="220" height="90" rx="12" fill="#f5f3ff" stroke="#7c3aed" stroke-width="1.8"/>
<text x="1230" y="363.5" font-size="18" text-anchor="middle" font-weight="650">LearningInsights</text>
<text x="1230" y="388.5" font-size="18" text-anchor="middle" font-weight="400">projection</text>
</g>
<g>
<rect x="1120" y="445" width="220" height="76" rx="12" fill="#f5f3ff" stroke="#7c3aed" stroke-width="1.8"/>
<text x="1230" y="476.5" font-size="18" text-anchor="middle" font-weight="650">Məhsul modulları ilə</text>
<text x="1230" y="501.5" font-size="18" text-anchor="middle" font-weight="400">import/query yoxdur</text>
</g>
<g>
<path d="M 350 505 C 350 485,650 485,650 505 L 650 585 C 650 605,350 605,350 585 Z" fill="#eff6ff" stroke="#2563eb" stroke-width="1.8"/>
<ellipse cx="500" cy="505" rx="150" ry="15" fill="#eff6ff" stroke="#2563eb" stroke-width="1.8"/>
<text x="500" y="545.5" font-size="17" text-anchor="middle" font-weight="650">Vahid database</text>
<text x="500" y="570.5" font-size="17" text-anchor="middle" font-weight="400">məhsul + r1_*</text>
</g>
<g>
<path d="M 720 505 C 720 485,1020 485,1020 505 L 1020 585 C 1020 605,720 605,720 585 Z" fill="#ecfdf5" stroke="#059669" stroke-width="1.8"/>
<ellipse cx="870" cy="505" rx="150" ry="15" fill="#ecfdf5" stroke="#059669" stroke-width="1.8"/>
<text x="870" y="545.5" font-size="17" text-anchor="middle" font-weight="650">Private storage</text>
<text x="870" y="570.5" font-size="17" text-anchor="middle" font-weight="400">yalnız Media sahibdir</text>
</g>
<g>
<rect x="345" y="650" width="680" height="76" rx="12" fill="#f1f5f9" stroke="#64748b" stroke-width="1.8"/>
<text x="685" y="681.5" font-size="18" text-anchor="middle" font-weight="650">Lab modulları məhsula UI və REST endpoint əlavə etmir.</text>
<text x="685" y="706.5" font-size="18" text-anchor="middle" font-weight="400">Roadmap ideyaları mövcud funksiya sayılmır.</text>
</g>
<text x="36" y="757" font-size="14" text-anchor="start" font-weight="400">TaskFlow • cari kodun izahı • bütöv repo müqaviləsi üçün docs-ibp</text>
</svg>
